<?xml version="1.0" standalone="no"?>
<!DOCTYPE svg PUBLIC "-//W3C//DTD SVG 1.1//EN" "http://www.w3.org/Graphics/SVG/1.1/DTD/svg11.dtd" >
<svg xmlns="http://www.w3.org/2000/svg" xmlns:xlink="http://www.w3.org/1999/xlink" version="1.1">
<metadata></metadata>
<defs>
<font id="evogriaregular" horiz-adv-x="1302" >
<font-face units-per-em="2048" ascent="1638" descent="-410" />
<missing-glyph horiz-adv-x="508" />
<glyph unicode="&#xd;" horiz-adv-x="508" />
<glyph horiz-adv-x="0" />
<glyph horiz-adv-x="0" />
<glyph unicode=" "  horiz-adv-x="508" />
<glyph unicode="&#x09;" horiz-adv-x="508" />
<glyph unicode="&#xa0;" horiz-adv-x="508" />
<glyph unicode="!" horiz-adv-x="885" d="M218 1v313h354v-313h-354zM227 528v1164h336v-1164h-336z" />
<glyph unicode="&#x22;" horiz-adv-x="1071" d="M129 1806h336l-77 -665h-185zM554 1806h336l-77 -665h-185z" />
<glyph unicode="#" horiz-adv-x="1403" d="M55 481v283h174l45 263h-219v282h268l67 383h302l-66 -383h233l66 384h303l-67 -384h123v-282h-172l-45 -263h217v-283h-267l-83 -480h-302l83 480h-233l-83 -481h-303l84 481h-125zM531 764h233l46 263h-233z" />
<glyph unicode="$" horiz-adv-x="1255" d="M94 214v340h336v-258h318v266q0 110 -159 110q-208 0 -347 111q-148 118 -148 312v349q0 96 74 164q73 67 174 67h80v156h335v-156h79q101 0 174 -67q74 -68 74 -164v-341h-336v259h-318v-267q0 -110 159 -110q208 0 347 -110q148 -118 148 -313v-348q0 -96 -74 -165 q-73 -66 -174 -66h-80v-155h-334v155h-80q-101 0 -174 66q-74 69 -74 165z" />
<glyph unicode="%" horiz-adv-x="2077" d="M203 955v646q0 50 52 86q51 35 122 35h296q72 0 123 -35q52 -36 52 -86v-646q0 -50 -52 -86q-51 -35 -123 -35h-296q-71 0 -122 35q-52 36 -52 86zM438 998h175v560h-175v-560zM616 0l624 1692h262l-625 -1692h-261zM1254 91v646q0 50 52 86q51 35 122 35h297 q71 0 122 -35q52 -36 52 -86v-646q0 -50 -52 -86q-51 -35 -122 -35h-297q-71 0 -122 35q-52 36 -52 86zM1489 134h175v560h-175v-560z" />
<glyph unicode="&#x26;" horiz-adv-x="1350" d="M82 231v400q0 165 107 275q-65 86 -65 208v347q0 96 74 164q73 67 174 67h452q101 0 174 -67q74 -68 74 -164v-298q0 -194 -148 -312q-139 -111 -347 -111q-159 0 -159 -109v-318h318v119q0 421 460 423h56v-314h-56q-68 0 -95 -22q-29 -24 -29 -87v-201q0 -96 -74 -164 q-73 -67 -174 -67h-494q-101 0 -174 67q-74 68 -74 164zM460 1101q3 -30 12 -55q50 8 105 8q159 0 159 109v216h-276v-278z" />
<glyph unicode="'" horiz-adv-x="654" d="M129 1806h336l-77 -665h-185z" />
<glyph unicode="(" horiz-adv-x="938" d="M248 110v1408q0 179 137 288q128 103 321 103h56v-216h-56q-147 -16 -147 -118v-1522q0 -102 147 -118h56v-216h-56q-193 0 -321 103q-137 109 -137 288z" />
<glyph unicode=")" horiz-adv-x="942" d="M91 -65h56q147 16 147 118v1522q0 102 -147 118h-56v216h56q193 0 321 -103q137 -109 137 -288v-1408q0 -179 -137 -288q-128 -103 -321 -103h-56v216z" />
<glyph unicode="*" horiz-adv-x="1226" d="M104 1190v185q311 36 335 61t58 336h186q36 -311 61 -336t336 -61v-185q-311 -34 -336 -58.5t-61 -335.5h-186q-34 311 -58 335.5t-335 58.5z" />
<glyph unicode="+" horiz-adv-x="1194" d="M93 783v283h327v326h282v-326h327v-283h-327v-327h-282v327h-327z" />
<glyph unicode="," horiz-adv-x="672" d="M130 2v313h354v-313l-250 -354v354h-104z" />
<glyph unicode="-" horiz-adv-x="1040" d="M110 662v283h753v-283h-753z" />
<glyph unicode="." horiz-adv-x="669" d="M130 1v313h354v-313h-354z" />
<glyph unicode="/" horiz-adv-x="945" d="M149 0l293 1692h303l-294 -1692h-302z" />
<glyph unicode="0" d="M203 231v1230q0 96 74 164q73 67 174 67h424q102 0 175 -67q74 -68 74 -164v-1230q0 -96 -74 -164q-73 -67 -175 -67h-424q-101 0 -174 67q-74 68 -74 164zM539 313h249v1066h-249v-1066z" />
<glyph unicode="1" d="M216 0v313h293v1066h-293v313h380q102 0 174 -67q74 -68 74 -164v-1148h293v-313h-921z" />
<glyph unicode="2" d="M191 0v580q0 195 129 310q126 113 332 113q67 0 94 22q30 24 30 87v267h-249v-258h-336v340q0 96 74 164q73 67 174 67h424q102 0 175 -67q74 -68 74 -164v-349q0 -195 -128 -310q-126 -113 -332 -113q-68 0 -95 -22q-30 -24 -30 -87v-267h585v-313h-921z" />
<glyph unicode="3" d="M174 231v341h336v-259h249v267q0 63 -30 87q-27 22 -94 22h-165v314h165q67 0 94 22q30 24 30 87v267h-249v-258h-336v340q0 96 74 164q73 67 174 67h424q102 0 175 -67q74 -68 74 -164v-349q0 -165 -97 -266q97 -101 97 -266v-349q0 -96 -74 -164q-73 -67 -175 -67h-424 q-101 0 -174 67q-74 68 -74 164z" />
<glyph unicode="4" d="M105 613l154 1079h310l-126 -996h276v996h336v-996h133v-313h-133v-383h-336v383h-366q-101 0 -174 66q-74 68 -74 164z" />
<glyph unicode="5" d="M210 231v296h336v-214h249v475q0 63 -22 86q-21 22 -87 22q-68 0 -102 -21q-38 -26 -38 -87v-66h-336v970h921v-313h-585v-314q166 86 291 86q83 0 148 -38q146 -86 146 -325v-557q0 -96 -74 -164q-73 -67 -175 -67h-424q-101 0 -174 67q-74 68 -74 164z" />
<glyph unicode="6" d="M203 231v1230q0 96 74 164q73 67 174 67h424q102 0 175 -67q74 -68 74 -164v-340h-336v258h-249v-439q129 70 240 70q97 0 179 -53q166 -106 166 -339v-387q0 -96 -74 -164q-73 -67 -175 -67h-424q-101 0 -174 67q-74 68 -74 164zM539 313h249v305q0 62 -30 87 q-27 22 -94 22q-68 0 -95 -22q-30 -25 -30 -87v-305z" />
<glyph unicode="7" d="M166 1121v340q0 96 74 164q73 67 174 67h424q102 0 175 -67q74 -68 74 -164q0 -230 -64 -424q-44 -133 -175 -391q-158 -309 -158 -576v-70h-336v70q0 209 60 395q44 134 162 366q160 313 173 548h-247v-258h-336z" />
<glyph unicode="8" d="M191 231v349q0 165 96 266q-96 101 -96 266v349q0 96 74 164q73 67 174 67h424q102 0 175 -67q74 -68 74 -164v-349q0 -165 -97 -266q97 -101 97 -266v-349q0 -96 -74 -164q-73 -67 -175 -67h-424q-101 0 -174 67q-74 68 -74 164zM527 313h249v267q0 63 -30 87 q-27 22 -94 22q-68 0 -96 -22q-29 -24 -29 -87v-267zM527 1112q0 -63 29 -87q28 -22 96 -22q67 0 94 22q30 24 30 87v267h-249v-267z" />
<glyph unicode="9" d="M190 231v341h336v-259h249v439q-129 -70 -240 -70q-97 0 -179 53q-166 107 -166 339v387q0 96 74 164q73 67 174 67h424q102 0 175 -67q74 -68 74 -164v-1230q0 -96 -74 -164q-73 -67 -175 -67h-424q-101 0 -174 67q-74 68 -74 164zM526 1074q0 -62 29 -87q27 -22 95 -22 q67 0 95 22q30 25 30 87v305h-249v-305z" />
<glyph unicode=":" horiz-adv-x="525" d="M61 1v313h354v-313h-354zM61 983v313h354v-313h-354z" />
<glyph unicode=";" horiz-adv-x="525" d="M61 2v313h354v-313l-250 -354v354h-104zM61 984v313h354v-313h-354z" />
<glyph unicode="&#x3c;" horiz-adv-x="1144" d="M104 751v288l936 331v-283l-651 -192l651 -192v-283z" />
<glyph unicode="=" horiz-adv-x="1152" d="M108 481v283h936v-283h-936zM108 1027v282h936v-282h-936z" />
<glyph unicode="&#x3e;" horiz-adv-x="1144" d="M104 420v283l651 192l-651 192v283l936 -331v-288z" />
<glyph unicode="?" horiz-adv-x="1045" d="M34 1121v340q0 96 74 165q73 66 174 66h424q102 0 175 -66q74 -69 74 -165q0 -230 -64 -424q-44 -133 -175 -391q-30 -60 -56 -119h-356q47 121 140 304q160 313 173 548h-247v-258h-336zM305 1v313h354v-313h-354z" />
<glyph unicode="@" horiz-adv-x="1984" d="M107 -122v1536q0 78 60 134q59 54 142 54h1287q83 0 143 -54q60 -56 60 -134v-1084q0 -79 -60 -134t-143 -55h-850q-81 0 -139 53q-58 54 -58 130v475q0 154 117 248q111 87 276 87h392v-603h-266v355h-126q-127 0 -127 -87v-410h710v958h-1145v-1402h709v-256h-780 q-83 0 -142 55q-60 55 -60 134z" />
<glyph unicode="A" horiz-adv-x="1145" d="M-12 0l328 1692h447l327 -1692h-341l-66 343h-287l-68 -343h-340zM457 656h164l-82 721z" />
<glyph unicode="B" horiz-adv-x="1219" d="M84 0v1692h699q102 0 176 -67q74 -68 74 -164v-349q0 -153 -110 -250q151 -100 151 -282v-157q0 -194 -148 -312q-139 -111 -347 -111h-495zM420 313h159q159 0 159 110v157q0 46 -36 78q-36 31 -84 31h-198v-376zM420 1003h155q49 0 85 31q37 33 37 78v267h-277v-376z " />
<glyph unicode="C" horiz-adv-x="1171" d="M68 231v1230q0 96 74 164q73 67 174 67h494q101 0 174 -67q74 -68 74 -164v-340h-336v258h-318v-1066h318v259h336v-341q0 -96 -74 -164q-73 -67 -174 -67h-494q-101 0 -174 67q-74 68 -74 164z" />
<glyph unicode="D" horiz-adv-x="1240" d="M84 0v1692h742q101 0 174 -67q74 -68 74 -164v-1038q0 -194 -148 -312q-139 -111 -347 -111h-495zM420 313h159q159 0 159 110v956h-318v-1066z" />
<glyph unicode="E" horiz-adv-x="1068" d="M84 0v1692h896v-313h-560v-376h466v-314h-466v-376h560v-313h-896z" />
<glyph unicode="F" horiz-adv-x="1030" d="M84 0v1692h896v-313h-560v-376h466v-314h-466v-689h-336z" />
<glyph unicode="G" horiz-adv-x="1200" d="M68 231v1230q0 96 74 164q73 67 174 67h494q101 0 174 -67q74 -68 74 -164v-340h-336v258h-318v-1066h318v290h-159v313h495v-685q0 -96 -74 -164q-73 -67 -174 -67h-494q-101 0 -174 67q-74 68 -74 164z" />
<glyph unicode="H" horiz-adv-x="1258" d="M84 0v1692h336v-689h318v689h336v-1692h-336v689h-318v-689h-336z" />
<glyph unicode="I" horiz-adv-x="604" d="M84 0v1692h336v-1692h-336z" />
<glyph unicode="J" horiz-adv-x="821" d="M-23 0v313h179q160 0 160 110v1269h336v-1269q0 -194 -148 -312q-140 -111 -348 -111h-179z" />
<glyph unicode="K" horiz-adv-x="1158" d="M84 0v1692h336v-689h129l208 689h341l-254 -846l254 -846h-341l-208 689h-129v-689h-336z" />
<glyph unicode="L" horiz-adv-x="941" d="M84 0v1692h336v-1379h466v-313h-802z" />
<glyph unicode="M" horiz-adv-x="1818" d="M84 0v1692h466l310 -1375l308 1375h466v-1692h-336v1115l-234 -1115h-408l-236 1115v-1115h-336z" />
<glyph unicode="N" horiz-adv-x="1345" d="M84 0v1692h466l275 -1095v1095h336v-1692h-465l-276 1090v-1090h-336z" />
<glyph unicode="O" horiz-adv-x="1235" d="M68 231v1230q0 96 74 164q73 67 174 67h494q101 0 174 -67q74 -68 74 -164v-1230q0 -96 -74 -164q-73 -67 -174 -67h-494q-101 0 -174 67q-74 68 -74 164zM404 313h318v1066h-318v-1066z" />
<glyph unicode="P" horiz-adv-x="1175" d="M84 0v1692h742q101 0 174 -67q74 -68 74 -164v-436q0 -193 -148 -311q-139 -111 -347 -111h-159v-603h-336zM420 916h159q159 0 159 109v354h-318v-463z" />
<glyph unicode="Q" horiz-adv-x="1231" d="M67 234v1229q0 96 74 165q73 66 174 66h494q101 0 174 -66q74 -69 74 -165v-1038q0 -143 -84 -248q84 -94 84 -225v-101h-336v101q0 27 -13 50h-393q-101 0 -174 67q-74 68 -74 165zM403 315h228q62 0 79 24q11 18 11 86v956h-318v-1066z" />
<glyph unicode="R" horiz-adv-x="1231" d="M84 0v1692h742q101 0 174 -67q74 -68 74 -164v-436q0 -166 -129 -265q129 -99 129 -267v-493h-336v493q0 46 -36 79q-36 31 -84 31h-198v-603h-336zM420 916h198q48 0 84 32q36 31 36 77v354h-318v-463z" />
<glyph unicode="S" horiz-adv-x="1181" d="M56 231v341h336v-259h318v267q0 109 -159 109q-208 0 -347 111q-148 118 -148 312v349q0 96 74 164q73 67 174 67h494q101 0 174 -67q74 -68 74 -164v-340h-336v258h-318v-267q0 -109 159 -109q208 0 347 -111q148 -118 148 -312v-349q0 -96 -74 -164q-73 -67 -174 -67 h-494q-101 0 -174 67q-74 68 -74 164z" />
<glyph unicode="T" horiz-adv-x="994" d="M-22 1379v313h990v-313h-327v-1379h-335v1379h-328z" />
<glyph unicode="U" horiz-adv-x="1242" d="M72 231v1461h336v-1379h318v1379h336v-1461q0 -96 -74 -164q-73 -67 -174 -67h-494q-101 0 -174 67q-74 68 -74 164z" />
<glyph unicode="V" horiz-adv-x="1134" d="M-13 1692h340q92 -466 211 -1370q120 905 210 1370h341l-327 -1692h-447z" />
<glyph unicode="W" horiz-adv-x="1927" d="M-5 1692h340q79 -463 180 -1376l205 1376h427l205 -1376q101 913 180 1376h340l-289 -1692h-449l-200 1218l-200 -1218h-449z" />
<glyph unicode="X" horiz-adv-x="1097" d="M-12 0l255 846l-255 846h341q70 -232 178 -689q108 457 178 689h342l-255 -846l255 -846h-342q-71 233 -178 689q-108 -456 -178 -689h-341z" />
<glyph unicode="Y" horiz-adv-x="1011" d="M-40 1692h343q74 -247 177 -810q105 563 178 810h343l-352 -1113v-579h-336v578z" />
<glyph unicode="Z" horiz-adv-x="906" d="M-5 0l414 1379h-390v313h827l-415 -1379h390v-313h-826z" />
<glyph unicode="[" horiz-adv-x="814" d="M150 -281v2190h514v-216h-203v-1758h203v-216h-514z" />
<glyph unicode="\" horiz-adv-x="896" d="M150 1692h303l293 -1692h-302z" />
<glyph unicode="]" horiz-adv-x="814" d="M150 -65h203v1758h-203v216h514v-2190h-514v216z" />
<glyph unicode="^" horiz-adv-x="1250" d="M150 873l331 818h288l331 -818h-283l-192 569l-192 -569h-283z" />
<glyph unicode="_" horiz-adv-x="1437" d="M150 -43h1137v-213h-1137v213z" />
<glyph unicode="`" horiz-adv-x="731" d="M150 1983h319l112 -310h-221z" />
<glyph unicode="a" horiz-adv-x="1132" d="M39 0l312 1607h424l311 -1607h-324l-63 326h-272l-65 -326h-323zM485 623h155l-78 685z" />
<glyph unicode="b" horiz-adv-x="1215" d="M139 0v1607h664q97 0 167 -63q71 -65 71 -156v-332q0 -145 -105 -237q144 -95 144 -268v-149q0 -184 -141 -297q-132 -105 -330 -105h-470zM458 297h151q151 0 151 105v149q0 44 -34 74t-80 30h-188v-358zM458 953h147q47 0 81 29q35 32 35 74v254h-263v-357z" />
<glyph unicode="c" horiz-adv-x="1179" d="M124 219v1169q0 91 70 156q70 63 166 63h469q96 0 165 -63q71 -65 71 -156v-323h-320v245h-302v-1013h302v246h320v-324q0 -91 -71 -155q-69 -64 -165 -64h-469q-96 0 -166 64t-70 155z" />
<glyph unicode="d" horiz-adv-x="1238" d="M139 0v1607h705q96 0 165 -63q71 -65 71 -156v-986q0 -184 -141 -297q-132 -105 -330 -105h-470zM458 297h151q151 0 151 105v908h-302v-1013z" />
<glyph unicode="e" horiz-adv-x="1084" d="M139 0v1607h851v-297h-532v-357h443v-298h-443v-358h532v-297h-851z" />
<glyph unicode="f" horiz-adv-x="1033" d="M140 0v1607h851v-297h-532v-357h443v-298h-443v-655h-319z" />
<glyph unicode="g" horiz-adv-x="1209" d="M124 219v1169q0 91 70 156q70 63 166 63h469q96 0 165 -63q71 -65 71 -156v-323h-320v245h-302v-1013h302v276h-151v297h471v-651q0 -91 -71 -155q-69 -64 -165 -64h-469q-96 0 -166 64t-70 155z" />
<glyph unicode="h" horiz-adv-x="1258" d="M140 0v1607h319v-654h302v654h320v-1607h-320v655h-302v-655h-319z" />
<glyph unicode="i" horiz-adv-x="636" d="M140 0v1607h319v-1607h-319z" />
<glyph unicode="j" horiz-adv-x="829" d="M24 0v297h170q152 0 152 105v1205h319v-1205q0 -184 -140 -297q-133 -105 -331 -105h-170z" />
<glyph unicode="k" horiz-adv-x="1181" d="M140 0v1607h319v-654h123l197 654h324l-241 -803l241 -804h-324l-197 655h-123v-655h-319z" />
<glyph unicode="l" horiz-adv-x="946" d="M139 0v1607h319v-1310h443v-297h-762z" />
<glyph unicode="m" horiz-adv-x="1789" d="M140 0v1607h443l294 -1306l293 1306h443v-1607h-320v1059l-222 -1059h-388l-224 1059v-1059h-319z" />
<glyph unicode="n" horiz-adv-x="1340" d="M140 0v1607h443l261 -1040v1040h319v-1607h-442l-262 1035v-1035h-319z" />
<glyph unicode="o" horiz-adv-x="1233" d="M124 219v1169q0 91 70 156q70 63 166 63h469q96 0 165 -63q71 -65 71 -156v-1169q0 -91 -71 -155q-69 -64 -165 -64h-469q-96 0 -166 64t-70 155zM443 297h302v1013h-302v-1013z" />
<glyph unicode="p" horiz-adv-x="1162" d="M140 0v1607h705q96 0 165 -63q71 -65 71 -156v-414q0 -184 -141 -296q-132 -105 -330 -105h-151v-573h-319zM459 870h151q151 0 151 104v336h-302v-440z" />
<glyph unicode="q" horiz-adv-x="1232" d="M126 222v1167q0 92 70 157q70 63 166 63h469q96 0 165 -63q71 -65 71 -157v-986q0 -136 -80 -235q80 -90 80 -214v-96h-320v96q0 26 -12 47h-373q-96 0 -166 64q-70 65 -70 157zM445 299h217q59 0 75 23q10 17 10 81v909h-302v-1013z" />
<glyph unicode="r" horiz-adv-x="1245" d="M140 0v1607h705q96 0 165 -63q71 -65 71 -156v-414q0 -158 -123 -252q123 -94 123 -254v-468h-320v468q0 44 -34 75q-34 30 -80 30h-188v-573h-319zM459 870h188q46 0 80 31q34 29 34 73v336h-302v-440z" />
<glyph unicode="s" horiz-adv-x="1194" d="M116 219v324h319v-246h302v254q0 104 -151 104q-197 0 -329 105q-141 112 -141 296v332q0 91 70 156q70 63 166 63h469q96 0 165 -63q71 -65 71 -156v-323h-320v245h-302v-254q0 -103 151 -103q198 0 330 -106q141 -112 141 -296v-332q0 -91 -71 -155q-69 -64 -165 -64 h-469q-96 0 -166 64t-70 155z" />
<glyph unicode="t" horiz-adv-x="976" d="M22 1310v297h941v-297h-311v-1310h-318v1310h-312z" />
<glyph unicode="u" horiz-adv-x="1246" d="M132 219v1388h319v-1310h302v1310h320v-1388q0 -91 -71 -155q-69 -64 -165 -64h-469q-96 0 -166 64t-70 155z" />
<glyph unicode="v" horiz-adv-x="1125" d="M37 1607h323q87 -442 200 -1301q114 860 200 1301h324l-311 -1607h-424z" />
<glyph unicode="w" horiz-adv-x="1882" d="M44 1607h323q75 -439 171 -1307l195 1307h405l195 -1307q96 868 171 1307h323l-274 -1607h-427l-190 1157l-190 -1157h-426z" />
<glyph unicode="x" horiz-adv-x="1129" d="M54 0l242 804l-242 803h324q66 -220 169 -654q103 434 169 654h325l-242 -803l242 -804h-325q-67 221 -169 655q-103 -434 -169 -655h-324z" />
<glyph unicode="y" horiz-adv-x="1013" d="M8 1607h326q70 -234 168 -769q100 535 169 769h326l-334 -1057v-550h-320v549z" />
<glyph unicode="z" horiz-adv-x="944" d="M49 0l393 1310h-370v297h785l-394 -1310h371v-297h-785z" />
<glyph unicode="{" horiz-adv-x="1017" d="M150 737v216h56q147 16 147 118v447q0 179 137 288q128 103 321 103h56v-216h-56q-147 -16 -147 -118v-447q0 -175 -131 -283q131 -108 131 -283v-509q0 -102 147 -118h56v-216h-56q-193 0 -321 103q-137 109 -137 288v509q0 102 -147 118h-56z" />
<glyph unicode="|" horiz-adv-x="597" d="M150 -413v2334h297v-2334h-297z" />
<glyph unicode="}" horiz-adv-x="1017" d="M150 -65h56q147 16 147 118v509q0 175 131 283q-131 108 -131 283v447q0 102 -147 118h-56v216h56q193 0 321 -103q137 -109 137 -288v-447q0 -102 147 -118h56v-216h-56q-147 -16 -147 -118v-509q0 -179 -137 -288q-128 -103 -321 -103h-56v216z" />
<glyph unicode="~" horiz-adv-x="1310" d="M150 837l22 43q76 148 205 205q64 29 129 29q72 0 145 -37l174 -90q21 -11 42 -11q55 0 106 78l22 42l165 -85l-22 -42q-76 -148 -205 -206q-64 -29 -128 -29q-73 0 -146 38l-174 89q-21 11 -42 11q-55 0 -106 -77l-22 -43z" />
<glyph unicode="&#xa1;" horiz-adv-x="885" d="M218 1294v313h354v-313h-354zM227 -84v1164h336v-1164h-336z" />
<glyph unicode="&#xa2;" horiz-adv-x="1179" d="M124 219v1169q0 91 70 156q70 63 166 63h266l24 149h233l-24 -151q77 -8 135 -61q71 -65 71 -156v-323h-320v245h-302v-1013h302v246h320v-324q0 -91 -71 -155q-69 -64 -165 -64h-155l-22 -137h-232l22 137h-82q-96 0 -166 64t-70 155z" />
<glyph unicode="&#xa3;" horiz-adv-x="1359" d="M150 672v283h163v314q0 194 148 312q139 111 347 111h356v-313h-356q-159 0 -159 -110v-314h437v-283h-437v-152q0 -118 -55 -207h615v-313h-1053v313q159 0 159 110v249h-165z" />
<glyph unicode="&#xa4;" horiz-adv-x="1277" d="M70 471l158 152v468q0 7 1 15l-159 153l158 152l141 -135q33 11 70 11h418q29 0 55 -7l136 131l159 -152l-142 -137q2 -15 2 -31v-485l140 -135l-159 -153l-124 119q-31 -10 -67 -10h-418q-44 0 -81 15l-130 -124zM494 669h308v376h-308v-376z" />
<glyph unicode="&#xa5;" horiz-adv-x="1341" d="M150 1692h343q74 -247 177 -810q105 563 178 810h343l-264 -835h206v-282h-294v-150h294v-283h-294v-142h-336v142h-306v283h306v150h-306v282h218z" />
<glyph unicode="&#xa6;" horiz-adv-x="597" d="M150 -413v1105h297v-1105h-297zM150 859v1062h297v-1062h-297z" />
<glyph unicode="&#xa7;" horiz-adv-x="1241" d="M150 -93v228h320v-150h302v159q0 103 -151 103q-198 0 -330 106q-141 112 -141 296v233q0 86 64 149q-64 91 -64 215v237q0 91 70 156q70 63 166 63h469q96 0 165 -63q71 -65 71 -156v-228h-320v150h-302v-159q0 -103 151 -103q198 0 330 -106q141 -112 141 -296v-233 q0 -86 -64 -149q64 -91 64 -215v-237q0 -91 -70 -156q-70 -63 -166 -63h-469q-96 0 -165 63q-71 65 -71 156zM470 649q0 -104 151 -104q80 0 150 -17v213q0 104 -151 104q-80 0 -150 17v-213z" />
<glyph unicode="&#xa8;" horiz-adv-x="1049" d="M150 1701v248h281v-248h-281zM618 1701v248h281v-248h-281z" />
<glyph unicode="&#xa9;" horiz-adv-x="1949" d="M239 159v1373q0 66 49 113q49 46 117 46h1049q68 0 117 -46q49 -47 49 -113v-1373q0 -66 -49 -114q-49 -45 -117 -45h-1049q-68 0 -117 45q-49 48 -49 114zM462 215h934v1260h-934v-1260zM634 462v743q0 58 44 99q45 40 106 40h298q61 0 105 -40q45 -41 45 -99v-205h-203 v156h-192v-644h192v156h203v-206q0 -58 -45 -98q-44 -41 -105 -41h-298q-61 0 -106 41q-44 40 -44 98z" />
<glyph unicode="&#xaa;" horiz-adv-x="776" d="M39 728l206 964h279l206 -964h-214l-42 196h-179l-43 -196h-213zM100 302v213h568v-213h-568zM333 1102h102l-51 411z" />
<glyph unicode="&#xab;" horiz-adv-x="1216" d="M150 658v288l487 331v-235l-262 -240l262 -240v-235zM579 658v288l487 331v-235l-262 -240l262 -240v-235z" />
<glyph unicode="&#xac;" horiz-adv-x="1144" d="M104 783v283h936v-559h-283v276h-653z" />
<glyph unicode="&#xad;" horiz-adv-x="1040" d="M110 662v283h753v-283h-753z" />
<glyph unicode="&#xae;" horiz-adv-x="1681" d="M150 159v1373q0 66 49 113q49 46 117 46h1049q68 0 117 -46q49 -47 49 -113v-1373q0 -66 -49 -114q-49 -45 -117 -45h-1049q-68 0 -117 45q-49 48 -49 114zM373 215h934v1260h-934v-1260zM536 319v1025h449q61 0 105 -40q46 -41 46 -99v-264q0 -101 -79 -161 q79 -60 79 -162v-299h-204v299q0 28 -22 48q-22 19 -51 19h-120v-366h-203zM739 874h120q29 0 51 20q22 19 22 47v214h-193v-281z" />
<glyph unicode="&#xaf;" horiz-adv-x="1244" d="M150 1730v215h944v-215h-944z" />
<glyph unicode="&#xb0;" horiz-adv-x="1048" d="M150 1326q0 155 109.5 264.5t264.5 109.5t264.5 -109.5t109.5 -264.5t-109.5 -264.5t-264.5 -109.5t-264.5 109.5t-109.5 264.5zM382 1326q0 -59 41.5 -100.5t100.5 -41.5t100.5 41.5t41.5 100.5t-41.5 100.5t-100.5 41.5t-100.5 -41.5t-41.5 -100.5z" />
<glyph unicode="&#xb1;" horiz-adv-x="1194" d="M93 0v283h936v-283h-936zM93 783v283h327v326h282v-326h327v-283h-327v-327h-282v327h-327z" />
<glyph unicode="&#xb2;" horiz-adv-x="1026" d="M191 508v406q0 136 90 217q89 79 233 79q47 0 66 15q21 17 21 61v187h-175v-181h-235v238q0 68 52 115q51 47 122 47h296q72 0 123 -47q52 -47 52 -115v-244q0 -136 -90 -217q-88 -79 -232 -79q-48 0 -67 -15q-21 -17 -21 -61v-187h410v-219h-645z" />
<glyph unicode="&#xb3;" horiz-adv-x="1026" d="M174 669v239h235v-181h175v187q0 44 -21 61q-19 15 -66 15h-116v220h116q47 0 66 15q21 17 21 61v187h-175v-181h-235v238q0 68 52 115q51 47 122 47h296q72 0 123 -47q52 -47 52 -115v-244q0 -115 -68 -186q68 -71 68 -186v-245q0 -67 -52 -114q-51 -47 -123 -47h-296 q-71 0 -122 47q-52 47 -52 114z" />
<glyph unicode="&#xb4;" horiz-adv-x="731" d="M150 1673l112 310h319l-210 -310h-221z" />
<glyph unicode="&#xb5;" horiz-adv-x="1246" d="M132 -254v1861h319v-1310h302v1310h320v-1388q0 -91 -71 -155q-69 -64 -165 -64h-386v-254h-319z" />
<glyph unicode="&#xb6;" horiz-adv-x="1452" d="M150 1318q0 155 109.5 264.5t264.5 109.5h313v-1692h-295v944h-18q-155 0 -264.5 109.5t-109.5 264.5zM1007 0v1692h295v-1692h-295z" />
<glyph unicode="&#xb7;" horiz-adv-x="508" d="M130 713v266h301v-266h-301z" />
<glyph unicode="&#xb8;" horiz-adv-x="741" d="M150 -344l67 106q79 -39 116 -39q42 0 72.5 25.5t30.5 61.5q0 37 -30 63q-21 16 -94 44l69 109q76 -11 135 -60q75 -65 75 -156q0 -90 -75.5 -154.5t-182.5 -64.5q-108 0 -183 65z" />
<glyph unicode="&#xb9;" horiz-adv-x="1026" d="M216 508v219h205v746h-205v219h266q71 0 122 -47q52 -47 52 -115v-803h205v-219h-645z" />
<glyph unicode="&#xba;" horiz-adv-x="913" d="M124 859v702q0 54 46 93q46 38 110 38h309q63 0 109 -38q47 -39 47 -93v-702q0 -54 -47 -93q-46 -38 -109 -38h-309q-64 0 -110 38q-46 39 -46 93zM150 302v213h568v-213h-568zM334 906h200v608h-200v-608z" />
<glyph unicode="&#xbb;" horiz-adv-x="1216" d="M150 327v235l262 240l-262 240v235l487 -331v-288zM579 327v235l262 240l-262 240v235l487 -331v-288z" />
<glyph unicode="&#xbc;" horiz-adv-x="2649" d="M216 508v219h205v746h-205v219h266q71 0 122 -47q52 -47 52 -115v-803h205v-219h-645zM906 0l624 1692h262l-625 -1692h-261zM1777 429l108 755h217l-88 -697h193v697h235v-697h93v-219h-93v-268h-235v268h-256q-71 0 -122 46q-52 48 -52 115z" />
<glyph unicode="&#xbd;" horiz-adv-x="2698" d="M216 508v219h205v746h-205v219h266q71 0 122 -47q52 -47 52 -115v-803h205v-219h-645zM906 0l624 1692h262l-625 -1692h-261zM1863 0v406q0 136 90 217q89 79 233 79q47 0 66 15q21 17 21 61v187h-175v-181h-235v238q0 68 52 115q51 47 122 47h296q72 0 123 -47 q52 -47 52 -115v-244q0 -136 -90 -217q-88 -79 -232 -79q-48 0 -67 -15q-21 -17 -21 -61v-187h410v-219h-645z" />
<glyph unicode="&#xbe;" horiz-adv-x="2649" d="M174 669v239h235v-181h175v187q0 44 -21 61q-19 15 -66 15h-116v220h116q47 0 66 15q21 17 21 61v187h-175v-181h-235v238q0 68 52 115q51 47 122 47h296q72 0 123 -47q52 -47 52 -115v-244q0 -115 -68 -186q68 -71 68 -186v-245q0 -67 -52 -114q-51 -47 -123 -47h-296 q-71 0 -122 47q-52 47 -52 114zM906 0l624 1692h262l-625 -1692h-261zM1777 429l108 755h217l-88 -697h193v697h235v-697h93v-219h-93v-268h-235v268h-256q-71 0 -122 46q-52 48 -52 115z" />
<glyph unicode="&#xbf;" horiz-adv-x="1045" d="M34 147q0 230 64 424q44 133 175 391q30 60 56 119h356q-47 -121 -140 -304q-160 -313 -173 -548h247v258h336v-340q0 -96 -74 -165q-73 -66 -174 -66h-424q-102 0 -175 66q-74 69 -74 165zM330 1294v313h354v-313h-354z" />
<glyph unicode="&#xc0;" horiz-adv-x="1145" d="M-12 0l328 1692h447l327 -1692h-341l-66 343h-287l-68 -343h-340zM252 2068h319l112 -310h-221zM457 656h164l-82 721z" />
<glyph unicode="&#xc1;" horiz-adv-x="1145" d="M-12 0l328 1692h447l327 -1692h-341l-66 343h-287l-68 -343h-340zM395 1758l112 310h319l-210 -310h-221zM457 656h164l-82 721z" />
<glyph unicode="&#xc2;" horiz-adv-x="1145" d="M-12 0l328 1692h447l327 -1692h-341l-66 343h-287l-68 -343h-340zM235 1780l108 295h395l106 -295h-210l-94 145l-93 -145h-212zM457 656h164l-82 721z" />
<glyph unicode="&#xc3;" horiz-adv-x="1145" d="M-12 0l328 1692h447l327 -1692h-341l-66 343h-287l-68 -343h-340zM180 1827l16 39q54 134 145 186q46 26 92 26q51 0 103 -33l124 -82q15 -10 30 -10q39 0 75 71l16 38l117 -77l-16 -38q-54 -134 -145 -187q-46 -26 -91 -26q-52 0 -104 35l-124 80q-15 10 -30 10 q-39 0 -75 -70l-16 -39zM457 656h164l-82 721z" />
<glyph unicode="&#xc4;" horiz-adv-x="1145" d="M-12 0l328 1692h447l327 -1692h-341l-66 343h-287l-68 -343h-340zM165 1786v248h281v-248h-281zM457 656h164l-82 721zM633 1786v248h281v-248h-281z" />
<glyph unicode="&#xc5;" horiz-adv-x="1145" d="M-12 0l328 1692h191q-73 10 -128 65q-66 66 -66 159q0 94 66 160.5t160 66.5t160 -66.5t66 -160.5q0 -93 -66 -159q-55 -55 -128 -65h192l327 -1692h-341l-66 343h-287l-68 -343h-340zM448 1916q0 -37 26.5 -63.5t64.5 -26.5t64.5 26.5t26.5 63.5q0 38 -26.5 64.5 t-64.5 26.5t-64.5 -26.5t-26.5 -64.5zM457 656h164l-82 721z" />
<glyph unicode="&#xc6;" horiz-adv-x="1626" d="M-12 0l407 1692h1143v-313h-560v-376h466v-314h-466l1 -376h559v-313h-896v343h-246l-68 -343h-340zM457 656h196v758z" />
<glyph unicode="&#xc7;" horiz-adv-x="1171" d="M68 231v1230q0 96 74 164q73 67 174 67h494q101 0 174 -67q74 -68 74 -164v-340h-336v258h-318v-1066h318v259h336v-341q0 -96 -74 -164q-73 -67 -174 -67h-153q27 -14 51 -34q76 -65 76 -156q0 -90 -75.5 -154.5t-183.5 -64.5q-107 0 -182 65l66 106q80 -39 116 -39 q43 0 73 25.5t30 61.5q0 37 -30 63q-20 16 -93 44l52 83h-241q-101 0 -174 67q-74 68 -74 164z" />
<glyph unicode="&#xc8;" horiz-adv-x="1068" d="M84 0v1692h896v-313h-560v-376h466v-314h-466v-376h560v-313h-896zM245 2068h319l112 -310h-221z" />
<glyph unicode="&#xc9;" horiz-adv-x="1068" d="M84 0v1692h896v-313h-560v-376h466v-314h-466v-376h560v-313h-896zM388 1758l112 310h319l-210 -310h-221z" />
<glyph unicode="&#xca;" horiz-adv-x="1068" d="M84 0v1692h896v-313h-560v-376h466v-314h-466v-376h560v-313h-896zM228 1780l108 295h395l106 -295h-210l-94 145l-93 -145h-212z" />
<glyph unicode="&#xcb;" horiz-adv-x="1068" d="M84 0v1692h896v-313h-560v-376h466v-314h-466v-376h560v-313h-896zM158 1786v248h281v-248h-281zM626 1786v248h281v-248h-281z" />
<glyph unicode="&#xcc;" horiz-adv-x="604" d="M-35 2068h319l112 -310h-221zM84 0v1692h336v-1692h-336z" />
<glyph unicode="&#xcd;" horiz-adv-x="604" d="M84 0v1692h336v-1692h-336zM108 1758l112 310h319l-210 -310h-221z" />
<glyph unicode="&#xce;" horiz-adv-x="604" d="M-52 1780l108 295h395l106 -295h-210l-94 145l-93 -145h-212zM84 0v1692h336v-1692h-336z" />
<glyph unicode="&#xcf;" horiz-adv-x="604" d="M-122 1786v248h281v-248h-281zM84 0v1692h336v-1692h-336zM346 1786v248h281v-248h-281z" />
<glyph unicode="&#xd0;" horiz-adv-x="1232" d="M-6 740v213h90v739h742q101 0 174 -67q74 -68 74 -164v-1038q0 -194 -148 -312q-139 -111 -347 -111h-495v740h-90zM420 313h159q159 0 159 110v956h-318v-426h176v-213h-176v-427z" />
<glyph unicode="&#xd1;" horiz-adv-x="1345" d="M84 0v1692h466l275 -1095v1095h336v-1692h-465l-276 1090v-1090h-336zM264 1827l16 39q54 134 145 186q46 26 92 26q51 0 103 -33l124 -82q15 -10 30 -10q39 0 75 71l16 38l117 -77l-16 -38q-54 -134 -145 -187q-46 -26 -91 -26q-52 0 -104 35l-124 80q-15 10 -30 10 q-39 0 -75 -70l-16 -39z" />
<glyph unicode="&#xd2;" horiz-adv-x="1235" d="M68 231v1230q0 96 74 164q73 67 174 67h494q101 0 174 -67q74 -68 74 -164v-1230q0 -96 -74 -164q-73 -67 -174 -67h-494q-101 0 -174 67q-74 68 -74 164zM276 2068h319l112 -310h-221zM404 313h318v1066h-318v-1066z" />
<glyph unicode="&#xd3;" horiz-adv-x="1235" d="M68 231v1230q0 96 74 164q73 67 174 67h494q101 0 174 -67q74 -68 74 -164v-1230q0 -96 -74 -164q-73 -67 -174 -67h-494q-101 0 -174 67q-74 68 -74 164zM404 313h318v1066h-318v-1066zM419 1758l112 310h319l-210 -310h-221z" />
<glyph unicode="&#xd4;" horiz-adv-x="1235" d="M68 231v1230q0 96 74 164q73 67 174 67h494q101 0 174 -67q74 -68 74 -164v-1230q0 -96 -74 -164q-73 -67 -174 -67h-494q-101 0 -174 67q-74 68 -74 164zM259 1780l108 295h395l106 -295h-210l-94 145l-93 -145h-212zM404 313h318v1066h-318v-1066z" />
<glyph unicode="&#xd5;" horiz-adv-x="1235" d="M68 231v1230q0 96 74 164q73 67 174 67h494q101 0 174 -67q74 -68 74 -164v-1230q0 -96 -74 -164q-73 -67 -174 -67h-494q-101 0 -174 67q-74 68 -74 164zM204 1827l16 39q54 134 145 186q46 26 92 26q51 0 103 -33l124 -82q15 -10 30 -10q39 0 75 71l16 38l117 -77 l-16 -38q-54 -134 -145 -187q-46 -26 -91 -26q-52 0 -104 35l-124 80q-15 10 -30 10q-39 0 -75 -70l-16 -39zM404 313h318v1066h-318v-1066z" />
<glyph unicode="&#xd6;" horiz-adv-x="1235" d="M68 231v1230q0 96 74 164q73 67 174 67h494q101 0 174 -67q74 -68 74 -164v-1230q0 -96 -74 -164q-73 -67 -174 -67h-494q-101 0 -174 67q-74 68 -74 164zM189 1786v248h281v-248h-281zM404 313h318v1066h-318v-1066zM657 1786v248h281v-248h-281z" />
<glyph unicode="&#xd7;" horiz-adv-x="1122" d="M130 693l231 232l-230 230l199 200l231 -231l231 231l200 -200l-231 -231l231 -231l-199 -200l-232 232l-231 -232z" />
<glyph unicode="&#xd8;" horiz-adv-x="1235" d="M68 231v1230q0 96 74 164q73 67 174 67h207l18 175h221l-18 -175h66q101 0 174 -67q74 -68 74 -164v-1230q0 -96 -74 -164q-73 -67 -174 -67h-238l-24 -234h-220l24 234h-36q-101 0 -174 67q-74 68 -74 164zM404 516l88 863h-88v-863zM604 313h118v1066h-10z" />
<glyph unicode="&#xd9;" horiz-adv-x="1242" d="M72 231v1461h336v-1379h318v1379h336v-1461q0 -96 -74 -164q-73 -67 -174 -67h-494q-101 0 -174 67q-74 68 -74 164zM280 2068h319l112 -310h-221z" />
<glyph unicode="&#xda;" horiz-adv-x="1242" d="M72 231v1461h336v-1379h318v1379h336v-1461q0 -96 -74 -164q-73 -67 -174 -67h-494q-101 0 -174 67q-74 68 -74 164zM423 1758l112 310h319l-210 -310h-221z" />
<glyph unicode="&#xdb;" horiz-adv-x="1242" d="M72 231v1461h336v-1379h318v1379h336v-1461q0 -96 -74 -164q-73 -67 -174 -67h-494q-101 0 -174 67q-74 68 -74 164zM263 1780l108 295h395l106 -295h-210l-94 145l-93 -145h-212z" />
<glyph unicode="&#xdc;" horiz-adv-x="1242" d="M72 231v1461h336v-1379h318v1379h336v-1461q0 -96 -74 -164q-73 -67 -174 -67h-494q-101 0 -174 67q-74 68 -74 164zM193 1786v248h281v-248h-281zM661 1786v248h281v-248h-281z" />
<glyph unicode="&#xdd;" horiz-adv-x="1011" d="M-40 1692h343q74 -247 177 -810q105 563 178 810h343l-352 -1113v-579h-336v578zM337 1758l112 310h319l-210 -310h-221z" />
<glyph unicode="&#xde;" horiz-adv-x="1162" d="M140 1824h319v-217h387q96 0 165 -63q71 -65 71 -156v-414q0 -184 -141 -296q-132 -105 -330 -105h-151v-805h-319zM460 870h151q151 0 151 104v336h-302v-440z" />
<glyph unicode="&#xdf;" horiz-adv-x="1219" d="M84 0v1269q0 194 148 312q165 109 328 109q164 0 325 -109q148 -118 148 -312v-157q0 -153 -110 -250q151 -100 151 -282v-248q0 -194 -148 -312q-81 -65 -202 -65q-87 0 -193 33v313q87 -33 137 -33q70 0 70 64v248q0 85 -122 97t-124 157v5q0 140 102 154 q103 13 103 119v157q0 103 -139 110q-138 -7 -138 -110v-1269h-336z" />
<glyph unicode="&#xe0;" horiz-adv-x="1132" d="M39 0l312 1607h424l311 -1607h-324l-63 326h-272l-65 -326h-323zM275 1983h319l112 -310h-221zM485 623h155l-78 685z" />
<glyph unicode="&#xe1;" horiz-adv-x="1132" d="M39 0l312 1607h424l311 -1607h-324l-63 326h-272l-65 -326h-323zM419 1673l112 310h319l-210 -310h-221zM485 623h155l-78 685z" />
<glyph unicode="&#xe2;" horiz-adv-x="1132" d="M39 0l312 1607h424l311 -1607h-324l-63 326h-272l-65 -326h-323zM258 1695l108 295h395l106 -295h-210l-94 145l-93 -145h-212zM485 623h155l-78 685z" />
<glyph unicode="&#xe3;" horiz-adv-x="1132" d="M39 0l312 1607h424l311 -1607h-324l-63 326h-272l-65 -326h-323zM204 1742l16 39q54 134 145 186q46 26 92 26q51 0 103 -33l124 -82q15 -10 30 -10q39 0 75 71l16 38l117 -77l-16 -38q-54 -134 -145 -187q-46 -26 -91 -26q-52 0 -104 35l-124 80q-15 10 -30 10 q-39 0 -75 -70l-16 -39zM485 623h155l-78 685z" />
<glyph unicode="&#xe4;" horiz-adv-x="1132" d="M39 0l312 1607h424l311 -1607h-324l-63 326h-272l-65 -326h-323zM188 1701v248h281v-248h-281zM485 623h155l-78 685zM656 1701v248h281v-248h-281z" />
<glyph unicode="&#xe5;" horiz-adv-x="1132" d="M39 0l312 1607h180q-73 10 -128 65q-66 66 -66 159q0 94 66 160.5t160 66.5t160 -66.5t66 -160.5q0 -93 -66 -159q-55 -55 -128 -65h180l311 -1607h-324l-63 326h-272l-65 -326h-323zM472 1831q0 -37 26.5 -63.5t64.5 -26.5q37 0 63.5 26.5t26.5 63.5q0 38 -26.5 64.5 t-63.5 26.5q-38 0 -64.5 -26.5t-26.5 -64.5zM485 623h155l-78 685z" />
<glyph unicode="&#xe6;" horiz-adv-x="1548" d="M-12 0l387 1607h1086v-297h-532v-357h442v-298h-442v-358h532v-297h-852v326h-233l-65 -326h-323zM434 623h186v720z" />
<glyph unicode="&#xe7;" horiz-adv-x="1179" d="M124 219v1169q0 91 70 156q70 63 166 63h469q96 0 165 -63q71 -65 71 -156v-323h-320v245h-302v-1013h302v246h320v-324q0 -91 -71 -155q-69 -64 -165 -64h-141q28 -14 52 -34q75 -65 75 -156q0 -90 -75.5 -154.5t-182.5 -64.5q-108 0 -183 65l67 106q79 -39 116 -39 q42 0 72.5 25.5t30.5 61.5q0 37 -30 63q-21 16 -94 44l53 83h-229q-96 0 -166 64t-70 155z" />
<glyph unicode="&#xe8;" horiz-adv-x="1084" d="M139 0v1607h851v-297h-532v-357h443v-298h-443v-358h532v-297h-851zM277 1983h319l112 -310h-221z" />
<glyph unicode="&#xe9;" horiz-adv-x="1084" d="M139 0v1607h851v-297h-532v-357h443v-298h-443v-358h532v-297h-851zM421 1673l112 310h319l-210 -310h-221z" />
<glyph unicode="&#xea;" horiz-adv-x="1084" d="M139 0v1607h851v-297h-532v-357h443v-298h-443v-358h532v-297h-851zM260 1695l108 295h395l106 -295h-210l-94 145l-93 -145h-212z" />
<glyph unicode="&#xeb;" horiz-adv-x="1084" d="M139 0v1607h851v-297h-532v-357h443v-298h-443v-358h532v-297h-851zM190 1701v248h281v-248h-281zM658 1701v248h281v-248h-281z" />
<glyph unicode="&#xec;" horiz-adv-x="636" d="M12 1983h319l112 -310h-221zM140 0v1607h319v-1607h-319z" />
<glyph unicode="&#xed;" horiz-adv-x="636" d="M140 0v1607h319v-1607h-319zM156 1673l112 310h319l-210 -310h-221z" />
<glyph unicode="&#xee;" horiz-adv-x="636" d="M-5 1695l108 295h395l106 -295h-210l-94 145l-93 -145h-212zM140 0v1607h319v-1607h-319z" />
<glyph unicode="&#xef;" horiz-adv-x="636" d="M-75 1701v248h281v-248h-281zM140 0v1607h319v-1607h-319zM393 1701v248h281v-248h-281z" />
<glyph unicode="&#xf0;" d="M203 231v320q0 233 166 339q82 53 179 53q111 0 240 -70q0 166 -40 287l-296 -81l-58 213l235 64q-84 79 -211 109l75 227q282 -60 438 -253l215 59l58 -213l-159 -44q79 -199 79 -481v-430q0 -195 -74 -263q-73 -67 -174 -67h-424q-102 0 -175 67q-74 68 -74 164z M539 313h249v238q0 62 -30 87q-27 22 -95 22q-67 0 -94 -22q-30 -25 -30 -87v-238z" />
<glyph unicode="&#xf1;" horiz-adv-x="1340" d="M140 0v1607h443l261 -1040v1040h319v-1607h-442l-262 1035v-1035h-319zM293 1742l16 39q54 134 145 186q46 26 92 26q51 0 103 -33l124 -82q15 -10 30 -10q39 0 75 71l16 38l117 -77l-16 -38q-54 -134 -145 -187q-46 -26 -91 -26q-52 0 -104 35l-124 80q-15 10 -30 10 q-39 0 -75 -70l-16 -39z" />
<glyph unicode="&#xf2;" horiz-adv-x="1233" d="M124 219v1169q0 91 70 156q70 63 166 63h469q96 0 165 -63q71 -65 71 -156v-1169q0 -91 -71 -155q-69 -64 -165 -64h-469q-96 0 -166 64t-70 155zM307 1983h319l112 -310h-221zM443 297h302v1013h-302v-1013z" />
<glyph unicode="&#xf3;" horiz-adv-x="1233" d="M124 219v1169q0 91 70 156q70 63 166 63h469q96 0 165 -63q71 -65 71 -156v-1169q0 -91 -71 -155q-69 -64 -165 -64h-469q-96 0 -166 64t-70 155zM443 297h302v1013h-302v-1013zM451 1673l112 310h319l-210 -310h-221z" />
<glyph unicode="&#xf4;" horiz-adv-x="1233" d="M124 219v1169q0 91 70 156q70 63 166 63h469q96 0 165 -63q71 -65 71 -156v-1169q0 -91 -71 -155q-69 -64 -165 -64h-469q-96 0 -166 64t-70 155zM290 1695l108 295h395l106 -295h-210l-94 145l-93 -145h-212zM443 297h302v1013h-302v-1013z" />
<glyph unicode="&#xf5;" horiz-adv-x="1233" d="M124 219v1169q0 91 70 156q70 63 166 63h469q96 0 165 -63q71 -65 71 -156v-1169q0 -91 -71 -155q-69 -64 -165 -64h-469q-96 0 -166 64t-70 155zM236 1742l16 39q54 134 145 186q46 26 92 26q51 0 103 -33l124 -82q15 -10 30 -10q39 0 75 71l16 38l117 -77l-16 -38 q-54 -134 -145 -187q-46 -26 -91 -26q-52 0 -104 35l-124 80q-15 10 -30 10q-39 0 -75 -70l-16 -39zM443 297h302v1013h-302v-1013z" />
<glyph unicode="&#xf6;" horiz-adv-x="1233" d="M124 219v1169q0 91 70 156q70 63 166 63h469q96 0 165 -63q71 -65 71 -156v-1169q0 -91 -71 -155q-69 -64 -165 -64h-469q-96 0 -166 64t-70 155zM220 1701v248h281v-248h-281zM443 297h302v1013h-302v-1013zM688 1701v248h281v-248h-281z" />
<glyph unicode="&#xf7;" horiz-adv-x="1236" d="M150 783v283h936v-283h-936zM441 277v313h354v-313h-354zM441 1259v313h354v-313h-354z" />
<glyph unicode="&#xf8;" horiz-adv-x="1233" d="M124 219v1169q0 91 70 156q70 63 166 63h180l17 124h270l-18 -124h20q96 0 165 -63q71 -65 71 -156v-1169q0 -91 -71 -155q-69 -64 -165 -64h-202l-17 -119h-268l16 119q-95 1 -164 64q-70 64 -70 155zM443 297h302v1013h-302v-1013z" />
<glyph unicode="&#xf9;" horiz-adv-x="1246" d="M132 219v1388h319v-1310h302v1310h320v-1388q0 -91 -71 -155q-69 -64 -165 -64h-469q-96 0 -166 64t-70 155zM315 1983h319l112 -310h-221z" />
<glyph unicode="&#xfa;" horiz-adv-x="1246" d="M132 219v1388h319v-1310h302v1310h320v-1388q0 -91 -71 -155q-69 -64 -165 -64h-469q-96 0 -166 64t-70 155zM459 1673l112 310h319l-210 -310h-221z" />
<glyph unicode="&#xfb;" horiz-adv-x="1246" d="M132 219v1388h319v-1310h302v1310h320v-1388q0 -91 -71 -155q-69 -64 -165 -64h-469q-96 0 -166 64t-70 155zM298 1695l108 295h395l106 -295h-210l-94 145l-93 -145h-212z" />
<glyph unicode="&#xfc;" horiz-adv-x="1246" d="M132 219v1388h319v-1310h302v1310h320v-1388q0 -91 -71 -155q-69 -64 -165 -64h-469q-96 0 -166 64t-70 155zM228 1701v248h281v-248h-281zM696 1701v248h281v-248h-281z" />
<glyph unicode="&#xfd;" horiz-adv-x="1013" d="M8 1607h326q70 -234 168 -769q100 535 169 769h326l-334 -1057v-550h-320v549zM359 1673l112 310h319l-210 -310h-221z" />
<glyph unicode="&#xfe;" horiz-adv-x="1162" d="M140 1824h319v-217h387q96 0 165 -63q71 -65 71 -156v-414q0 -184 -141 -296q-132 -105 -330 -105h-151v-805h-319zM460 870h151q151 0 151 104v336h-302v-440z" />
<glyph unicode="&#xff;" horiz-adv-x="1013" d="M8 1607h326q70 -234 168 -769q100 535 169 769h326l-334 -1057v-550h-320v549zM128 1701v248h281v-248h-281zM596 1701v248h281v-248h-281z" />
<glyph unicode="&#x152;" horiz-adv-x="1594" d="M68 231v1230q0 96 74 164q73 67 174 67h494q101 0 174 -67q74 -68 74 -164v-1230q0 -96 -74 -164q-73 -67 -174 -67h-494q-101 0 -174 67q-74 68 -74 164zM404 313h318v1066h-318v-1066zM610 0v1692h896v-313h-560v-376h466v-314h-466v-376h560v-313h-896z" />
<glyph unicode="&#x153;" horiz-adv-x="1840" d="M124 219v1169q0 91 70 156q70 63 166 63h469q96 0 165 -63q71 -65 71 -156v-1169q0 -91 -71 -155q-69 -64 -165 -64h-469q-96 0 -166 64t-70 155zM443 297h302v1013h-302v-1013zM895 0v1607h851v-297h-532v-357h443v-298h-443v-358h532v-297h-851z" />
<glyph unicode="&#x178;" horiz-adv-x="1011" d="M-40 1692h343q74 -247 177 -810q105 563 178 810h343l-352 -1113v-579h-336v578zM106 1786v248h281v-248h-281zM574 1786v248h281v-248h-281z" />
<glyph unicode="&#x2c6;" horiz-adv-x="909" d="M150 1695l108 295h395l106 -295h-210l-94 145l-93 -145h-212z" />
<glyph unicode="&#x2dc;" horiz-adv-x="1018" d="M150 1742l16 39q54 134 145 186q46 26 92 26q51 0 103 -33l124 -82q15 -10 30 -10q39 0 75 71l16 38l117 -77l-16 -38q-54 -134 -145 -187q-46 -26 -91 -26q-52 0 -104 35l-124 80q-15 10 -30 10q-39 0 -75 -70l-16 -39z" />
<glyph unicode="&#x2000;" horiz-adv-x="1071" />
<glyph unicode="&#x2001;" horiz-adv-x="2143" />
<glyph unicode="&#x2002;" horiz-adv-x="1071" />
<glyph unicode="&#x2003;" horiz-adv-x="2143" />
<glyph unicode="&#x2004;" horiz-adv-x="714" />
<glyph unicode="&#x2005;" horiz-adv-x="535" />
<glyph unicode="&#x2006;" horiz-adv-x="357" />
<glyph unicode="&#x2007;" horiz-adv-x="357" />
<glyph unicode="&#x2008;" horiz-adv-x="267" />
<glyph unicode="&#x2009;" horiz-adv-x="428" />
<glyph unicode="&#x200a;" horiz-adv-x="119" />
<glyph unicode="&#x2010;" horiz-adv-x="1040" d="M110 662v283h753v-283h-753z" />
<glyph unicode="&#x2011;" horiz-adv-x="1040" d="M110 662v283h753v-283h-753z" />
<glyph unicode="&#x2012;" horiz-adv-x="1040" d="M110 662v283h753v-283h-753z" />
<glyph unicode="&#x2013;" horiz-adv-x="1375" d="M0 662v283h1375v-283h-1375z" />
<glyph unicode="&#x2014;" horiz-adv-x="2117" d="M0 662v283h2117v-283h-2117z" />
<glyph unicode="&#x2018;" horiz-adv-x="654" d="M150 1184v313l250 354v-354h104v-313h-354z" />
<glyph unicode="&#x2019;" horiz-adv-x="654" d="M150 1389v313h354v-313l-250 -354v354h-104z" />
<glyph unicode="&#x201a;" horiz-adv-x="654" d="M150 2v313h354v-313l-250 -354v354h-104z" />
<glyph unicode="&#x201c;" horiz-adv-x="1150" d="M150 1184v313l250 354v-354h104v-313h-354zM646 1184v313l250 354v-354h104v-313h-354z" />
<glyph unicode="&#x201d;" horiz-adv-x="1150" d="M150 1389v313h354v-313l-250 -354v354h-104zM646 1389v313h354v-313l-250 -354v354h-104z" />
<glyph unicode="&#x201e;" horiz-adv-x="1150" d="M150 20v313h354v-313l-250 -354v354h-104zM646 20v313h354v-313l-250 -354v354h-104z" />
<glyph unicode="&#x2022;" horiz-adv-x="792" d="M53 802q0 139 98 237.5t237 98.5t237.5 -98.5t98.5 -237.5t-98.5 -237.5t-237.5 -98.5t-237 98.5t-98 237.5z" />
<glyph unicode="&#x2026;" horiz-adv-x="2048" d="M130 1v313h354v-313h-354zM813 1v313h354v-313h-354zM1496 1v313h354v-313h-354z" />
<glyph unicode="&#x202f;" horiz-adv-x="428" />
<glyph unicode="&#x2039;" horiz-adv-x="787" d="M150 658v288l487 331v-235l-262 -240l262 -240v-235z" />
<glyph unicode="&#x203a;" horiz-adv-x="787" d="M150 327v235l262 240l-262 240v235l487 -331v-288z" />
<glyph unicode="&#x205f;" horiz-adv-x="535" />
<glyph unicode="&#x20ac;" horiz-adv-x="1170" d="M68 569v213h148v149h-148v213h148v317q0 96 63 164q62 67 148 67h419q86 0 148 -67q63 -68 63 -164v-340h-285v258h-271v-235h188v-213h-188v-149h188v-213h-188v-256h271v259h285v-341q0 -96 -63 -164q-62 -67 -148 -67h-419q-86 0 -148 67q-63 68 -63 164v338h-148z " />
<glyph unicode="&#x2122;" horiz-adv-x="1305" d="M-22 1482v125h656l139 -550l139 550h209v-677h-151v446l-105 -446h-184l-106 446v-446h-151v552h-148v-552h-150v552h-148z" />
<glyph unicode="&#x25fc;" horiz-adv-x="1605" d="M0 0v1605h1605v-1605h-1605z" />
<glyph unicode="&#xfb01;" horiz-adv-x="1669" d="M140 0v1607h851v-297h-532v-357h443v-298h-443v-655h-319zM1173 0v1607h319v-1607h-319z" />
<glyph unicode="&#xfb02;" horiz-adv-x="1979" d="M140 0v1607h851v-297h-532v-357h443v-298h-443v-655h-319zM1172 0v1607h319v-1310h443v-297h-762z" />
<glyph unicode="&#xfb03;" horiz-adv-x="2702" d="M140 0v1607h851v-297h-532v-357h443v-298h-443v-655h-319zM1173 0v1607h851v-297h-532v-357h443v-298h-443v-655h-319zM2206 0v1607h319v-1607h-319z" />
<glyph unicode="&#xfb04;" horiz-adv-x="3012" d="M140 0v1607h851v-297h-532v-357h443v-298h-443v-655h-319zM1173 0v1607h851v-297h-532v-357h443v-298h-443v-655h-319zM2205 0v1607h319v-1310h443v-297h-762z" />
</font>
</defs>
</svg>
